<?xml version="1.0" encoding="us-ascii" standalone="no"?><svg xmlns="http://www.w3.org/2000/svg" xmlns:xlink="http://www.w3.org/1999/xlink" contentStyleType="text/css" height="561px" preserveAspectRatio="none" style="width:581px;height:561px;background:#FFFFFF;" version="1.1" viewBox="0 0 581 561" width="581px" zoomAndPan="magnify"><defs/><g><rect fill="#FFA500" height="36.2969" rx="12.5" ry="12.5" style="stroke:#181818;stroke-width:1.5;" width="62" x="10" y="261.4844"/><text fill="#000000" font-family="sans-serif" font-size="14" lengthAdjust="spacing" textLength="42" x="20" y="284.4795">Web3</text><rect fill="#808080" height="36.2969" rx="12.5" ry="12.5" style="stroke:#181818;stroke-width:1.5;" width="109" x="122" y="20"/><text fill="#000000" font-family="sans-serif" font-size="14" lengthAdjust="spacing" textLength="89" x="132" y="42.9951">BTC Ecology</text><rect fill="#808080" height="36.2969" rx="12.5" ry="12.5" style="stroke:#181818;stroke-width:1.5;" width="73" x="281" y="20"/><text fill="#000000" font-family="sans-serif" font-size="14" lengthAdjust="spacing" textLength="53" x="291" y="42.9951">BRC-20</text><rect fill="#F1F1F1" height="36.2969" rx="12.5" ry="12.5" style="stroke:#181818;stroke-width:1.5;" width="50" x="404" y="20"/><text fill="#000000" font-family="sans-serif" font-size="14" lengthAdjust="spacing" textLength="30" x="414" y="42.9951">Ordi</text><path d="M354,38.1484 L364,38.1484 C379,38.1484 379,38.1484 394,38.1484 L404,38.1484 " fill="none" style="stroke:#181818;stroke-width:1.0;"/><path d="M231,38.1484 L241,38.1484 C256,38.1484 256,38.1484 271,38.1484 L281,38.1484 " fill="none" style="stroke:#181818;stroke-width:1.0;"/><path d="M72,279.6328 L82,279.6328 C97,279.6328 97,38.1484 112,38.1484 L122,38.1484 " fill="none" style="stroke:#181818;stroke-width:1.0;"/><rect fill="#ADD8E6" height="36.2969" rx="12.5" ry="12.5" style="stroke:#181818;stroke-width:1.5;" width="108" x="122" y="92.5938"/><text fill="#000000" font-family="sans-serif" font-size="14" lengthAdjust="spacing" textLength="88" x="132" y="115.5889">ETH Ecology</text><rect fill="#ADD8E6" height="36.2969" rx="12.5" ry="12.5" style="stroke:#181818;stroke-width:1.5;" width="71" x="280" y="92.5938"/><text fill="#000000" font-family="sans-serif" font-size="14" lengthAdjust="spacing" textLength="51" x="290" y="115.5889">Layer 2</text><rect fill="#F1F1F1" height="68.8906" rx="12.5" ry="12.5" style="stroke:#181818;stroke-width:1.5;" width="168" x="401" y="76.2969"/><text fill="#000000" font-family="sans-serif" font-size="14" lengthAdjust="spacing" textLength="45" x="415" y="99.292">Rollup</text><ellipse cx="416.5" cy="111.3906" fill="#000000" rx="2.5" ry="2.5" style="stroke:#000000;stroke-width:0.0;"/><text fill="#000000" font-family="sans-serif" font-size="14" lengthAdjust="spacing" textLength="136" x="423" y="115.5889">OP Rollup. OP, ARB</text><ellipse cx="416.5" cy="127.6875" fill="#000000" rx="2.5" ry="2.5" style="stroke:#000000;stroke-width:0.0;"/><text fill="#000000" font-family="sans-serif" font-size="14" lengthAdjust="spacing" textLength="69" x="423" y="131.8857">ZK Rollup</text><path d="M351,110.7422 L361,110.7422 C376,110.7422 376,110.7422 391,110.7422 L401,110.7422 " fill="none" style="stroke:#181818;stroke-width:1.0;"/><path d="M230,110.7422 L240,110.7422 C255,110.7422 255,110.7422 270,110.7422 L280,110.7422 " fill="none" style="stroke:#181818;stroke-width:1.0;"/><path d="M72,279.6328 L82,279.6328 C97,279.6328 97,110.7422 112,110.7422 L122,110.7422 " fill="none" style="stroke:#181818;stroke-width:1.0;"/><rect fill="#DAA520" height="36.2969" rx="12.5" ry="12.5" style="stroke:#181818;stroke-width:1.5;" width="57" x="122" y="165.1875"/><text fill="#000000" font-family="sans-serif" font-size="14" lengthAdjust="spacing" textLength="37" x="132" y="188.1826">Lay 0</text><rect fill="#F1F1F1" height="36.2969" rx="12.5" ry="12.5" style="stroke:#181818;stroke-width:1.5;" width="84" x="229" y="165.1875"/><text fill="#000000" font-family="sans-serif" font-size="14" lengthAdjust="spacing" textLength="64" x="239" y="188.1826">Polkadot</text><path d="M179,183.3359 L189,183.3359 C204,183.3359 204,183.3359 219,183.3359 L229,183.3359 " fill="none" style="stroke:#181818;stroke-width:1.0;"/><path d="M72,279.6328 L82,279.6328 C97,279.6328 97,183.3359 112,183.3359 L122,183.3359 " fill="none" style="stroke:#181818;stroke-width:1.0;"/><rect fill="#90EE90" height="36.2969" rx="12.5" ry="12.5" style="stroke:#181818;stroke-width:1.5;" width="57" x="122" y="221.4844"/><text fill="#000000" font-family="sans-serif" font-size="14" lengthAdjust="spacing" textLength="37" x="132" y="244.4795">Lay 1</text><path d="M72,279.6328 L82,279.6328 C97,279.6328 97,239.6328 112,239.6328 L122,239.6328 " fill="none" style="stroke:#181818;stroke-width:1.0;"/><rect fill="#FFD700" height="36.2969" rx="12.5" ry="12.5" style="stroke:#181818;stroke-width:1.5;" width="103" x="122" y="277.7813"/><text fill="#000000" font-family="sans-serif" font-size="14" lengthAdjust="spacing" textLength="83" x="132" y="300.7764">Cross Chain</text><path d="M72,279.6328 L82,279.6328 C97,279.6328 97,295.9297 112,295.9297 L122,295.9297 " fill="none" style="stroke:#181818;stroke-width:1.0;"/><rect fill="#FFFFE0" height="36.2969" rx="12.5" ry="12.5" style="stroke:#181818;stroke-width:1.5;" width="135" x="122" y="334.0781"/><text fill="#000000" font-family="sans-serif" font-size="14" lengthAdjust="spacing" textLength="115" x="132" y="357.0732">Game &amp; GameFi</text><path d="M72,279.6328 L82,279.6328 C97,279.6328 97,352.2266 112,352.2266 L122,352.2266 " fill="none" style="stroke:#181818;stroke-width:1.0;"/><rect fill="#FFC0CB" height="36.2969" rx="12.5" ry="12.5" style="stroke:#181818;stroke-width:1.5;" width="52" x="122" y="446.6719"/><text fill="#000000" font-family="sans-serif" font-size="14" lengthAdjust="spacing" textLength="32" x="132" y="469.667">DeFi</text><rect fill="#FFC0CB" height="36.2969" rx="12.5" ry="12.5" style="stroke:#181818;stroke-width:1.5;" width="50" x="224" y="390.375"/><text fill="#000000" font-family="sans-serif" font-size="14" lengthAdjust="spacing" textLength="30" x="234" y="413.3701">DEX</text><path d="M174,464.8203 L184,464.8203 C199,464.8203 199,408.5234 214,408.5234 L224,408.5234 " fill="none" style="stroke:#181818;stroke-width:1.0;"/><rect fill="#FFC0CB" height="36.2969" rx="12.5" ry="12.5" style="stroke:#181818;stroke-width:1.5;" width="47" x="224" y="446.6719"/><text fill="#000000" font-family="sans-serif" font-size="14" lengthAdjust="spacing" textLength="27" x="234" y="469.667">NTF</text><path d="M174,464.8203 L184,464.8203 C199,464.8203 199,464.8203 214,464.8203 L224,464.8203 " fill="none" style="stroke:#181818;stroke-width:1.0;"/><rect fill="#FFC0CB" height="36.2969" rx="12.5" ry="12.5" style="stroke:#181818;stroke-width:1.5;" width="107" x="224" y="502.9688"/><text fill="#000000" font-family="sans-serif" font-size="14" lengthAdjust="spacing" textLength="87" x="234" y="525.9639">Public Chain</text><rect fill="#F1F1F1" height="36.2969" rx="12.5" ry="12.5" style="stroke:#181818;stroke-width:1.5;" width="67" x="381" y="502.9688"/><text fill="#000000" font-family="sans-serif" font-size="14" lengthAdjust="spacing" textLength="47" x="391" y="525.9639">Solana</text><path d="M331,521.1172 L341,521.1172 C356,521.1172 356,521.1172 371,521.1172 L381,521.1172 " fill="none" style="stroke:#181818;stroke-width:1.0;"/><path d="M174,464.8203 L184,464.8203 C199,464.8203 199,521.1172 214,521.1172 L224,521.1172 " fill="none" style="stroke:#181818;stroke-width:1.0;"/><path d="M72,279.6328 L82,279.6328 C97,279.6328 97,464.8203 112,464.8203 L122,464.8203 " fill="none" style="stroke:#181818;stroke-width:1.0;"/><!--SRC=[LL9HRzem47xthpXfKWLhGIHqMvMzT8JGYf8j8hITDkN19BVKgkD3ZiEKVxyZeOFwnVw-k- -xyzctjPFMLSeKbTm9SVdx0rbfIipW6RTJSSb4QMMRmMmJGfIJfh9bzaIlmv4_4HzvmGzRg4wXLVdYjhfXbsXp_rvs5bl95YtudJY0DMdTx0JR9CVpc8zNy6qzO_BNmv7yslT4ka1ZgUXSO7BmXeJqgop8dNeeBQBfKxp_kWn2ItKDuOjKvfJRejRqDuCxMI5STDkYlyvEcTSCvZqyuUZdEVo-MPp3fDbgbHzhTDD9IKiZXRX5dlNRl1Fct6EyWZtQMf41R-nF_EdOcmvYHdFCmVF0kmdyIV3f2ppo8npYGp6uIrPGKsDpX4BLpgfjuzXWA9PoBs7T6ASg3E201fju26dqHa9azigIgT0uiNoA-oIu9vVko7N9dwz7C-KWHSjzmLCivlX7DjgnDAT2cJBWLXQZ6x7YlzB8aWkX4I5n0TjoBFq7]--></g></svg>